<?xml version="1.0" encoding="utf-8"?>
<!-- Generator: Adobe Illustrator 17.1.0, SVG Export Plug-In . SVG Version: 6.00 Build 0)  -->
<!DOCTYPE svg PUBLIC "-//W3C//DTD SVG 1.1//EN" "http://www.w3.org/Graphics/SVG/1.1/DTD/svg11.dtd">
<svg version="1.1" id="Capa_1" xmlns="http://www.w3.org/2000/svg" xmlns:xlink="http://www.w3.org/1999/xlink" x="0px" y="0px"
	 viewBox="395.2 23.8 169.6 169.6" enable-background="new 395.2 23.8 169.6 169.6" xml:space="preserve">
<circle cx="652.8" cy="281.4" r="45.7"/>
<path d="M652.8,196.5c-46.8,0-84.8,38-84.8,84.8s38,84.8,84.8,84.8s84.8-38.1,84.8-84.8C737.6,234.6,699.6,196.5,652.8,196.5z
	 M652.8,343.9c-34.5,0-62.5-28-62.5-62.5c0-34.5,28.1-62.5,62.5-62.5c34.5,0,62.5,28.1,62.5,62.5
	C715.3,315.8,687.3,343.9,652.8,343.9z"/>
<path d="M480,369.3c-46.8,0-84.8,38-84.8,84.8s38,84.8,84.8,84.8s84.8-38,84.8-84.8S526.8,369.3,480,369.3z M523,485.2
	c3.3,3.3,3.3,8.6,0,11.9c-1.6,1.6-3.8,2.5-5.9,2.5s-4.3-0.8-5.9-2.5L480,466l-31.1,31.1c-1.6,1.6-3.8,2.5-5.9,2.5s-4.3-0.8-5.9-2.5
	c-3.3-3.3-3.3-8.6,0-11.9l31.1-31.1L437,423.1c-3.3-3.3-3.3-8.6,0-11.9c3.3-3.3,8.6-3.3,11.9,0l31.1,31.1l31.1-31.1
	c3.3-3.3,8.6-3.3,11.9,0c3.3,3.3,3.3,8.6,0,11.9l-31.1,31.1L523,485.2z"/>
<rect x="772.4" y="65.5" width="65.6" height="65.6"/>
<path d="M805.2,13.5c-46.8,0-84.8,38-84.8,84.8s38,84.8,84.8,84.8s84.8-38,84.8-84.8S852,13.5,805.2,13.5z M854.8,139.5
	c0,4.6-3.8,8.4-8.4,8.4H764c-4.6,0-8.4-3.8-8.4-8.4V57.1c0-4.6,3.8-8.4,8.4-8.4h82.4c4.6,0,8.4,3.8,8.4,8.4V139.5z"/>
<polygon points="442.7,131.3 517.3,131.3 480,65.4 "/>
<path d="M480,23.8c-46.8,0-84.8,38-84.8,84.8s38,84.8,84.8,84.8s84.8-38,84.8-84.8C564.8,61.8,526.8,23.8,480,23.8z M539,143.9
	c-1.5,2.6-4.3,4.2-7.3,4.2H428.3c-3,0-5.8-1.6-7.3-4.2s-1.5-5.8-0.1-8.4l51.7-91.4c1.5-2.6,4.3-4.3,7.3-4.3s5.8,1.6,7.3,4.3
	l51.7,91.4C540.5,138.1,540.5,141.3,539,143.9z"/>
<path fill="#FFFFFF" d="M127,31.8c-46.8,0-84.8,38-84.8,84.8s38,84.8,84.8,84.8s84.8-38,84.8-84.8C211.8,69.8,173.8,31.8,127,31.8z
	 M186,151.9c-1.5,2.6-4.3,4.2-7.3,4.2H75.3c-3,0-5.8-1.6-7.3-4.2c-1.5-2.6-1.5-5.8-0.1-8.4l51.7-91.4c1.5-2.6,4.3-4.3,7.3-4.3
	s5.8,1.6,7.3,4.3l51.7,91.4C187.5,146.1,187.5,149.3,186,151.9z"/>
<polygon points="89.7,141.5 164.3,141.5 127,75.6 "/>
<rect x="90.7" y="165.6" width="65.6" height="65.6"/>
<circle cx="217.8" cy="116.6" r="45.7"/>
<path fill="#070000" d="M267.8,238.8c3.3,3.3,3.3,8.6,0,11.9c-1.6,1.6-3.8,2.5-5.9,2.5s-4.3-0.8-5.9-2.5l-31.1-31.1l-31.1,31.1
	c-1.6,1.6-3.8,2.5-5.9,2.5c-2.2,0-4.3-0.8-5.9-2.5c-3.3-3.3-3.3-8.6,0-11.9l31.1-31.1l-31.1-31.1c-3.3-3.3-3.3-8.6,0-11.9
	c3.3-3.3,8.6-3.3,11.9,0l31.1,31.1l31.1-31.1c3.3-3.3,8.6-3.3,11.9,0c3.3,3.3,3.3,8.6,0,11.9l-31.1,31.1L267.8,238.8z"/>
</svg>
