<?xml version="1.0" encoding="utf-8"?>
<!-- Generator: Adobe Illustrator 17.1.0, SVG Export Plug-In . SVG Version: 6.00 Build 0)  -->
<!DOCTYPE svg PUBLIC "-//W3C//DTD SVG 1.1//EN" "http://www.w3.org/Graphics/SVG/1.1/DTD/svg11.dtd">
<svg version="1.1" id="Capa_1" xmlns="http://www.w3.org/2000/svg" xmlns:xlink="http://www.w3.org/1999/xlink" x="0px" y="0px"
	 viewBox="222.4 104.4 518.6 319.9" enable-background="new 222.4 104.4 518.6 319.9" xml:space="preserve">
<g>
	<path d="M317.9,204.1c-5,3.7-8.4,6.7-8.9,7.7c-1.1,2.2-2.6,14.1-2.3,18.1c0.2,2.1,3.9,3.2,11.2,3.2l0,2.8v-2.8
		c7.3,0,11-1.1,11.2-3.2c0.3-4.1-1.2-15.9-2.3-18.1C326.2,210.7,322.3,207.3,317.9,204.1z"/>
	<path d="M300.5,185.5c-2-1-12-2.4-17.1-2.4c-0.4,0-0.8,0-1.1,0c-2.2,0.2-3.2,3.9-3.2,11.2c0,7.3,1.1,11.1,3.2,11.2
		c0.3,0,0.7,0,1.1,0c5.1,0,15.1-1.4,17.1-2.4c1-0.5,4.1-3.9,7.7-8.9C304.5,189.4,301.5,186,300.5,185.5z"/>
	<path d="M353.5,183.1c-4.2-0.3-16,1.3-18.1,2.3c-1,0.5-4.1,3.9-7.7,8.9c2.9,4,6.5,8.3,7.7,8.9c1.9,1,12,2.4,17.1,2.4
		c0.4,0,0.8,0,1.1,0c2.2-0.2,3.2-3.9,3.2-11.2c0-0.2,0-0.4,0.1-0.6C356.7,187.1,355.6,183.3,353.5,183.1z"/>
	<path d="M479.5,229.3c-15.6,0-28.3,12.7-28.3,28.3c0,15.6,12.7,28.3,28.3,28.3c15.6,0,28.3-12.7,28.3-28.3
		C507.8,242,495.1,229.3,479.5,229.3z M472.3,268.2c0,0.2-0.4,0.5-0.7,0.5c-4.5,0.7-8.8,0.3-13-1.4c-0.4-0.1-0.7-0.4-1-0.6
		c-1.6-1.1-1.6-2.6,0-3.7c0.7-0.5,1.5-0.9,2.3-1.2c4.1-1.5,8.1-2.9,12.4-4.5c0,1.5,0,2.9,0,4.3c0,0.2-0.4,0.4-0.7,0.5
		c-2.2,0.8-4.5,1.6-6.7,2.4c-0.5,0.2-1,0.5-1.5,0.8c0,0.1,0,0.3,0,0.4c0.5,0.2,1,0.5,1.5,0.5c1.4-0.1,2.8-0.3,4.1-0.6
		c1.1-0.2,2.1-0.7,3.4-1.2C472.3,265.9,472.3,267.1,472.3,268.2z M481.4,244.5c-0.2,0.4-0.1,0.8-0.1,1.3c0,8.7,0,17.4,0,26
		c0,0.4,0,0.8,0,1.4c-2.5-0.8-4.9-1.6-7.3-2.3c-0.2-0.1-0.4-0.4-0.4-0.6c-0.1-0.3,0-0.6,0-0.9c0-10.3,0-20.5,0-30.8
		c0-0.4,0-0.7,0-1.2c0.7,0.1,1.3,0.2,1.9,0.4c3.3,1,6.7,1.9,10,3c0.9,0.3,1.7,0.7,2.5,1.2c2.6,1.5,4.1,3.7,4.5,6.6
		c0.3,2.1,0.4,4.1-0.3,6.1c-1.1,3.4-4.3,4.4-7.6,2.8c-0.3-0.1-0.4-0.7-0.4-1c0-3.5,0-6.9,0-10.4c0-0.7-0.2-1.4-0.5-2
		c-0.2-0.4-0.9-0.6-1.3-0.6C481.9,243.5,481.6,244.1,481.4,244.5z M501.3,261.7c1.8,1.2,1.9,2.6,0.1,3.8c-1.1,0.7-2.4,1.2-3.6,1.7
		c-4.8,1.8-9.6,3.5-14.4,5.2c-0.2,0.1-0.4,0.1-0.8,0.2c0-1.4,0-2.7,0-4c0-0.3,0.4-0.6,0.7-0.7c3.5-1.3,7-2.5,10.4-3.7
		c0.5-0.2,0.9-0.3,1.4-0.5c0.3-0.1,0.4-0.4,0.6-0.7c-0.2-0.2-0.5-0.5-0.7-0.5c-1.5-0.4-3.1-0.2-4.5,0.3c-2.3,0.8-4.5,1.6-6.8,2.4
		c-0.3,0.1-0.7,0.2-1.2,0.4c0-1.5,0-2.9,0-4.3c0-0.2,0.3-0.5,0.6-0.5c5.9-1.9,11.7-1.8,17.5,0.7
		C500.9,261.5,501.1,261.6,501.3,261.7z"/>
	<path d="M373.7,154.9c2.5,0,4.5-2,4.5-4.5v-12.3c0-2.5-2-4.5-4.5-4.5s-4.5,2-4.5,4.5v12.3C369.2,152.9,371.3,154.9,373.7,154.9z"/>
	<path d="M317.9,184.7c4.4-3.3,8.3-6.6,8.9-7.7c1.1-2.2,2.6-14.1,2.3-18.1c-0.2-2.2-3.9-3.2-11.2-3.2c-7.3,0-11.1,1.1-11.2,3.2
		c-0.3,4.1,1.2,15.9,2.3,18.1C309.6,178,313.5,181.4,317.9,184.7z"/>
	<path d="M585.3,154.9c2.5,0,4.5-2,4.5-4.5v-12.3c0-2.5-2-4.5-4.5-4.5c-2.5,0-4.5,2-4.5,4.5v12.3
		C580.8,152.9,582.9,154.9,585.3,154.9z"/>
	<circle cx="640.1" cy="228.5" r="15.3"/>
	<circle cx="676" cy="192.6" r="15.3"/>
	<path d="M677.2,122.7c-1.2-1.8-3.4-3.3-6.4-4.5v-4.7c0,0-26.6-18-62-3.4c0,0-1.1,1-1.6,5.9c-2.2,0.5-4.2,1.1-5.7,1.7
		c-6.9,2.8-11.3,2-11.3,2h-23.9c0.9,1.9,1.4,3.9,1.4,6.1v74c0,8-6.5,14.5-14.5,14.5H405.9c-8,0-14.5-6.5-14.5-14.5v-74
		c0-2.2,0.5-4.2,1.4-6.1h-23c0,0-4.4,0.7-11.3-2c-1.6-0.6-3.5-1.2-5.7-1.7c-0.4-5-1.6-5.9-1.6-5.9c-35.3-14.6-62,3.4-62,3.4v4.7
		c-3,1.3-5.3,2.8-6.4,4.5c0,0-22.2,33.3-28.6,56.1c-6.4,22.8-37.4,150.8-31,199.9c6.4,49.1,80.7,61.4,100,22.8
		c19.3-38.6,32.1-85.3,32.1-85.3s7.6-5.6,9.4-5.6c0,0,32.7,27.2,68.1-2.3h94.4c35.4,29.5,68.1,2.3,68.1,2.3c1.8,0,9.4,5.6,9.4,5.6
		s12.9,46.8,32.1,85.3s93.5,26.3,100-22.8s-24.6-177.1-31-199.9S677.2,122.7,677.2,122.7z M363.6,138.2c0-5.6,4.5-10.1,10.1-10.1
		c5.6,0,10.1,4.5,10.1,10.1v12.3c0,5.6-4.5,10.1-10.1,10.1s-10.1-4.5-10.1-10.1V138.2L363.6,138.2z M301.1,158.4
		c0.6-8.4,11.9-8.4,16.8-8.4c4.9,0,16.2,0,16.8,8.4c0.3,4-1.1,17.3-2.9,21c-1.6,3.1-8.8,8.5-12.1,10.8c-0.2,0.2-0.5,0.3-0.7,0.4
		c-0.4,0.1-0.7,0.2-1.1,0.2c0,0-0.1,0-0.1,0c-0.4,0-0.7-0.1-1.1-0.3c-0.2-0.1-0.5-0.3-0.7-0.4c-3.3-2.3-10.5-7.7-12-10.8
		C302.2,175.8,300.8,162.4,301.1,158.4z M281.9,211.2c-8.4-0.6-8.4-11.9-8.4-16.8c0-4.9,0-16.2,8.4-16.8c0.4,0,0.9,0,1.5,0
		c4.7,0,16.1,1.3,19.6,3c3,1.5,8,8.1,10.8,12.1c0.1,0.1,0.2,0.3,0.3,0.5c0.3,0.5,0.4,1,0.3,1.6c0,0.3-0.1,0.7-0.3,1
		c-0.1,0.2-0.3,0.5-0.4,0.7c-2.8,4-7.8,10.6-10.8,12c-3.4,1.7-14.9,3-19.6,3C282.9,211.2,282.4,211.2,281.9,211.2z M334.7,230.3
		c-0.6,8.4-11.9,8.4-16.8,8.4l0,0h0c-4.9,0-16.2,0-16.8-8.4c-0.3-4,1.1-17.3,2.9-21c1.5-3,8.1-8,12-10.8c0.1-0.1,0.3-0.2,0.4-0.3
		c0.2-0.1,0.4-0.2,0.6-0.3c0.7-0.2,1.5-0.2,2.2,0.2c0.2,0.1,0.4,0.3,0.6,0.4c3.3,2.3,10.4,7.7,12,10.7
		C333.6,213,335,226.4,334.7,230.3z M362.3,194.7c0,4.5,0,15.9-8.4,16.5c-0.4,0-0.9,0-1.5,0c-4.7,0-16.2-1.3-19.6-3
		c-3.3-1.7-9.3-10-10.8-12.1c-0.2-0.2-0.3-0.4-0.4-0.6c0-0.1-0.1-0.2-0.1-0.3c-0.2-0.7-0.2-1.5,0.1-2.1c0.1-0.3,0.3-0.5,0.5-0.7
		c2.8-4,7.8-10.5,10.7-12c3.4-1.7,14.9-3,19.6-3c0.6,0,1,0,1.5,0c8.4,0.6,8.4,11.9,8.4,16.7C362.3,194.4,362.3,194.5,362.3,194.7z
		 M393.3,296.2c-16.5,0-29.9-13.4-29.9-29.9s13.4-30,29.9-30s29.9,13.4,29.9,30C423.3,282.7,409.8,296.2,393.3,296.2z M479.5,288.7
		c-17.1,0-31.1-13.9-31.1-31.1c0-17.1,13.9-31.1,31.1-31.1c17.1,0,31.1,13.9,31.1,31.1C510.6,274.7,496.7,288.7,479.5,288.7z
		 M640.1,135.8c11.5,0,20.9,9.4,20.9,20.9c0,11.5-9.4,20.9-20.9,20.9c-11.5,0-20.9-9.4-20.9-20.9
		C619.2,145.1,628.6,135.8,640.1,135.8z M575.2,138.2c0-5.6,4.5-10.1,10.1-10.1s10.1,4.5,10.1,10.1v12.3c0,5.6-4.5,10.1-10.1,10.1
		s-10.1-4.5-10.1-10.1V138.2z M561.3,296.2c-16.5,0-29.9-13.4-29.9-29.9s13.4-30,29.9-30s29.9,13.4,29.9,30
		C591.3,282.7,577.8,296.2,561.3,296.2z M604.2,213.5c-11.5,0-20.9-9.4-20.9-20.9s9.4-20.9,20.9-20.9c11.5,0,20.9,9.4,20.9,20.9
		S615.8,213.5,604.2,213.5z M640.1,249.4c-11.5,0-20.9-9.4-20.9-20.9s9.4-20.9,20.9-20.9c11.5,0,20.9,9.4,20.9,20.9
		S651.7,249.4,640.1,249.4z M676,213.5c-11.5,0-20.9-9.4-20.9-20.9s9.4-20.9,20.9-20.9c11.5,0,20.9,9.4,20.9,20.9
		S687.6,213.5,676,213.5z"/>
	<circle cx="640.1" cy="156.7" r="15.3"/>
	<circle cx="604.2" cy="192.6" r="15.3"/>
	<path d="M397,125.8v74c0,4.9,4,8.9,8.9,8.9h147.3c4.9,0,8.9-4,8.9-8.9v-74c0-2.4-0.9-4.5-2.4-6.1H399.4
		C397.9,121.3,397,123.5,397,125.8z"/>
	<path d="M561.3,241.9c-13.4,0-24.3,10.9-24.3,24.4c0,13.4,10.9,24.3,24.3,24.3c13.4,0,24.3-10.9,24.3-24.3
		C585.7,252.8,574.7,241.9,561.3,241.9z"/>
	<path d="M393.3,241.9c-13.4,0-24.3,10.9-24.3,24.4c0,13.4,10.9,24.3,24.3,24.3c13.4,0,24.3-10.9,24.3-24.3
		C417.7,252.8,406.7,241.9,393.3,241.9z"/>
</g>
</svg>
