<?xml version="1.0" encoding="UTF-8"?>
<!DOCTYPE svg PUBLIC "-//W3C//DTD SVG 1.1//EN" "http://www.w3.org/Graphics/SVG/1.1/DTD/svg11.dtd">
<svg xmlns="http://www.w3.org/2000/svg">
  <symbol id="icon-controller" viewBox="222.4 104.4 518.6 319.9">
    <path d="M317.9 204.1c-5 3.7-8.4 6.7-8.9 7.7-1.1 2.2-2.6 14.1-2.3 18.1.2 2.1 3.9 3.2 11.2 3.2v2.8-2.8c7.3 0 11-1.1 11.2-3.2.3-4.1-1.2-15.9-2.3-18.1-.6-1.1-4.5-4.5-8.9-7.7zM300.5 185.5c-2-1-12-2.4-17.1-2.4h-1.1c-2.2.2-3.2 3.9-3.2 11.2 0 7.3 1.1 11.1 3.2 11.2h1.1c5.1 0 15.1-1.4 17.1-2.4 1-.5 4.1-3.9 7.7-8.9-3.7-4.8-6.7-8.2-7.7-8.7zM353.5 183.1c-4.2-.3-16 1.3-18.1 2.3-1 .5-4.1 3.9-7.7 8.9 2.9 4 6.5 8.3 7.7 8.9 1.9 1 12 2.4 17.1 2.4h1.1c2.2-.2 3.2-3.9 3.2-11.2 0-.2 0-.4.1-.6-.2-6.7-1.3-10.5-3.4-10.7zM479.5 229.3c-15.6 0-28.3 12.7-28.3 28.3 0 15.6 12.7 28.3 28.3 28.3 15.6 0 28.3-12.7 28.3-28.3 0-15.6-12.7-28.3-28.3-28.3zm-7.2 38.9c0 .2-.4.5-.7.5-4.5.7-8.8.3-13-1.4-.4-.1-.7-.4-1-.6-1.6-1.1-1.6-2.6 0-3.7.7-.5 1.5-.9 2.3-1.2 4.1-1.5 8.1-2.9 12.4-4.5v4.3c0 .2-.4.4-.7.5-2.2.8-4.5 1.6-6.7 2.4-.5.2-1 .5-1.5.8v.4c.5.2 1 .5 1.5.5 1.4-.1 2.8-.3 4.1-.6 1.1-.2 2.1-.7 3.4-1.2-.1 1.5-.1 2.7-.1 3.8zm9.1-23.7c-.2.4-.1.8-.1 1.3v27.4c-2.5-.8-4.9-1.6-7.3-2.3-.2-.1-.4-.4-.4-.6-.1-.3 0-.6 0-.9v-32c.7.1 1.3.2 1.9.4 3.3 1 6.7 1.9 10 3 .9.3 1.7.7 2.5 1.2 2.6 1.5 4.1 3.7 4.5 6.6.3 2.1.4 4.1-.3 6.1-1.1 3.4-4.3 4.4-7.6 2.8-.3-.1-.4-.7-.4-1v-10.4c0-.7-.2-1.4-.5-2-.2-.4-.9-.6-1.3-.6-.5 0-.8.6-1 1zm19.9 17.2c1.8 1.2 1.9 2.6.1 3.8-1.1.7-2.4 1.2-3.6 1.7-4.8 1.8-9.6 3.5-14.4 5.2-.2.1-.4.1-.8.2v-4c0-.3.4-.6.7-.7 3.5-1.3 7-2.5 10.4-3.7.5-.2.9-.3 1.4-.5.3-.1.4-.4.6-.7-.2-.2-.5-.5-.7-.5-1.5-.4-3.1-.2-4.5.3-2.3.8-4.5 1.6-6.8 2.4-.3.1-.7.2-1.2.4v-4.3c0-.2.3-.5.6-.5 5.9-1.9 11.7-1.8 17.5.7.3 0 .5.1.7.2zM373.7 154.9c2.5 0 4.5-2 4.5-4.5v-12.3c0-2.5-2-4.5-4.5-4.5s-4.5 2-4.5 4.5v12.3c0 2.5 2.1 4.5 4.5 4.5zM317.9 184.7c4.4-3.3 8.3-6.6 8.9-7.7 1.1-2.2 2.6-14.1 2.3-18.1-.2-2.2-3.9-3.2-11.2-3.2-7.3 0-11.1 1.1-11.2 3.2-.3 4.1 1.2 15.9 2.3 18.1.6 1 4.5 4.4 8.9 7.7zM585.3 154.9c2.5 0 4.5-2 4.5-4.5v-12.3c0-2.5-2-4.5-4.5-4.5s-4.5 2-4.5 4.5v12.3c0 2.5 2.1 4.5 4.5 4.5z"/>
    <circle cx="640.1" cy="228.5" r="15.3"/>
    <circle cx="676" cy="192.6" r="15.3"/>
    <path d="M677.2 122.7c-1.2-1.8-3.4-3.3-6.4-4.5v-4.7s-26.6-18-62-3.4c0 0-1.1 1-1.6 5.9-2.2.5-4.2 1.1-5.7 1.7-6.9 2.8-11.3 2-11.3 2h-23.9c.9 1.9 1.4 3.9 1.4 6.1v74c0 8-6.5 14.5-14.5 14.5H405.9c-8 0-14.5-6.5-14.5-14.5v-74c0-2.2.5-4.2 1.4-6.1h-23s-4.4.7-11.3-2c-1.6-.6-3.5-1.2-5.7-1.7-.4-5-1.6-5.9-1.6-5.9-35.3-14.6-62 3.4-62 3.4v4.7c-3 1.3-5.3 2.8-6.4 4.5 0 0-22.2 33.3-28.6 56.1-6.4 22.8-37.4 150.8-31 199.9 6.4 49.1 80.7 61.4 100 22.8 19.3-38.6 32.1-85.3 32.1-85.3s7.6-5.6 9.4-5.6c0 0 32.7 27.2 68.1-2.3h94.4c35.4 29.5 68.1 2.3 68.1 2.3 1.8 0 9.4 5.6 9.4 5.6s12.9 46.8 32.1 85.3 93.5 26.3 100-22.8-24.6-177.1-31-199.9-28.6-56.1-28.6-56.1zm-313.6 15.5c0-5.6 4.5-10.1 10.1-10.1s10.1 4.5 10.1 10.1v12.3c0 5.6-4.5 10.1-10.1 10.1s-10.1-4.5-10.1-10.1v-12.3zm-62.5 20.2c.6-8.4 11.9-8.4 16.8-8.4s16.2 0 16.8 8.4c.3 4-1.1 17.3-2.9 21-1.6 3.1-8.8 8.5-12.1 10.8-.2.2-.5.3-.7.4-.4.1-.7.2-1.1.2h-.1c-.4 0-.7-.1-1.1-.3-.2-.1-.5-.3-.7-.4-3.3-2.3-10.5-7.7-12-10.8-1.8-3.5-3.2-16.9-2.9-20.9zm-19.2 52.8c-8.4-.6-8.4-11.9-8.4-16.8s0-16.2 8.4-16.8h1.5c4.7 0 16.1 1.3 19.6 3 3 1.5 8 8.1 10.8 12.1.1.1.2.3.3.5.3.5.4 1 .3 1.6 0 .3-.1.7-.3 1-.1.2-.3.5-.4.7-2.8 4-7.8 10.6-10.8 12-3.4 1.7-14.9 3-19.6 3-.4-.3-.9-.3-1.4-.3zm52.8 19.1c-.6 8.4-11.9 8.4-16.8 8.4s-16.2 0-16.8-8.4c-.3-4 1.1-17.3 2.9-21 1.5-3 8.1-8 12-10.8.1-.1.3-.2.4-.3l.6-.3c.7-.2 1.5-.2 2.2.2.2.1.4.3.6.4 3.3 2.3 10.4 7.7 12 10.7 1.8 3.8 3.2 17.2 2.9 21.1zm27.6-35.6c0 4.5 0 15.9-8.4 16.5h-1.5c-4.7 0-16.2-1.3-19.6-3-3.3-1.7-9.3-10-10.8-12.1-.2-.2-.3-.4-.4-.6 0-.1-.1-.2-.1-.3-.2-.7-.2-1.5.1-2.1.1-.3.3-.5.5-.7 2.8-4 7.8-10.5 10.7-12 3.4-1.7 14.9-3 19.6-3h1.5c8.4.6 8.4 11.9 8.4 16.7v.6zm31 101.5c-16.5 0-29.9-13.4-29.9-29.9s13.4-30 29.9-30 29.9 13.4 29.9 30c.1 16.4-13.4 29.9-29.9 29.9zm86.2-7.5c-17.1 0-31.1-13.9-31.1-31.1 0-17.1 13.9-31.1 31.1-31.1 17.1 0 31.1 13.9 31.1 31.1 0 17.1-13.9 31.1-31.1 31.1zm160.6-152.9c11.5 0 20.9 9.4 20.9 20.9 0 11.5-9.4 20.9-20.9 20.9-11.5 0-20.9-9.4-20.9-20.9 0-11.6 9.4-20.9 20.9-20.9zm-64.9 2.4c0-5.6 4.5-10.1 10.1-10.1s10.1 4.5 10.1 10.1v12.3c0 5.6-4.5 10.1-10.1 10.1s-10.1-4.5-10.1-10.1v-12.3zm-13.9 158c-16.5 0-29.9-13.4-29.9-29.9s13.4-30 29.9-30 29.9 13.4 29.9 30c.1 16.4-13.4 29.9-29.9 29.9zm42.9-82.7c-11.5 0-20.9-9.4-20.9-20.9s9.4-20.9 20.9-20.9c11.5 0 20.9 9.4 20.9 20.9s-9.3 20.9-20.9 20.9zm35.9 35.9c-11.5 0-20.9-9.4-20.9-20.9s9.4-20.9 20.9-20.9c11.5 0 20.9 9.4 20.9 20.9s-9.3 20.9-20.9 20.9zm35.9-35.9c-11.5 0-20.9-9.4-20.9-20.9s9.4-20.9 20.9-20.9c11.5 0 20.9 9.4 20.9 20.9s-9.3 20.9-20.9 20.9z"/>
    <circle cx="640.1" cy="156.7" r="15.3"/>
    <circle cx="604.2" cy="192.6" r="15.3"/>
    <path d="M397 125.8v74c0 4.9 4 8.9 8.9 8.9h147.3c4.9 0 8.9-4 8.9-8.9v-74c0-2.4-.9-4.5-2.4-6.1H399.4c-1.5 1.6-2.4 3.8-2.4 6.1zM561.3 241.9c-13.4 0-24.3 10.9-24.3 24.4 0 13.4 10.9 24.3 24.3 24.3s24.3-10.9 24.3-24.3c.1-13.5-10.9-24.4-24.3-24.4zM393.3 241.9c-13.4 0-24.3 10.9-24.3 24.4 0 13.4 10.9 24.3 24.3 24.3s24.3-10.9 24.3-24.3c.1-13.5-10.9-24.4-24.3-24.4z"/>
  </symbol>
</svg>
